<svg xmlns="http://www.w3.org/2000/svg" viewBox="0 0 80 80" fill="none">
  <!-- Source code lines (left) -->
  <rect x="6"  y="19" width="22" height="3" rx="1.5" fill="white" opacity="0.9"/>
  <rect x="10" y="26" width="15" height="3" rx="1.5" fill="white" opacity="0.65"/>
  <rect x="10" y="33" width="19" height="3" rx="1.5" fill="white" opacity="0.8"/>
  <rect x="10" y="40" width="12" height="3" rx="1.5" fill="white" opacity="0.55"/>
  <rect x="10" y="47" width="17" height="3" rx="1.5" fill="white" opacity="0.75"/>
  <rect x="6"  y="54" width="22" height="3" rx="1.5" fill="white" opacity="0.9"/>
  <!-- Compile arrow -->
  <path d="M33 38.5 L46 38.5" stroke="white" stroke-width="2.5" stroke-linecap="round" opacity="0.95"/>
  <path d="M42 33.5 L47.5 38.5 L42 43.5" stroke="white" stroke-width="2.5" stroke-linecap="round" stroke-linejoin="round" opacity="0.95"/>
  <!-- Binary output (right) -->
  <rect x="52" y="19" width="6" height="3" rx="1.5" fill="white" opacity="0.8"/>
  <rect x="62" y="19" width="6" height="3" rx="1.5" fill="white" opacity="0.45"/>
  <rect x="52" y="26" width="6" height="3" rx="1.5" fill="white" opacity="0.45"/>
  <rect x="62" y="26" width="6" height="3" rx="1.5" fill="white" opacity="0.85"/>
  <rect x="52" y="33" width="6" height="3" rx="1.5" fill="white" opacity="0.9"/>
  <rect x="62" y="33" width="6" height="3" rx="1.5" fill="white" opacity="0.4"/>
  <rect x="52" y="40" width="6" height="3" rx="1.5" fill="white" opacity="0.4"/>
  <rect x="62" y="40" width="6" height="3" rx="1.5" fill="white" opacity="0.75"/>
  <rect x="52" y="47" width="6" height="3" rx="1.5" fill="white" opacity="0.7"/>
  <rect x="62" y="47" width="6" height="3" rx="1.5" fill="white" opacity="0.9"/>
  <rect x="52" y="54" width="6" height="3" rx="1.5" fill="white" opacity="0.5"/>
  <rect x="62" y="54" width="6" height="3" rx="1.5" fill="white" opacity="0.6"/>
</svg>
